<mxfile host="app.diagrams.net" modified="2022-02-27T19:11:04.903Z" agent="5.0 (Windows NT 10.0; Win64; x64) AppleWebKit/537.36 (KHTML, like Gecko) Chrome/98.0.4758.102 Safari/537.36" etag="N50NRLA0dYTonTA2R_Bv" version="16.6.4" type="github">
  <diagram name="Page-1" id="5d7acffa-a066-3a61-03fe-96351882024d">
    <mxGraphModel dx="2285" dy="2725" grid="1" gridSize="10" guides="1" tooltips="1" connect="1" arrows="1" fold="1" page="1" pageScale="1" pageWidth="1100" pageHeight="850" background="#ffffff" math="0" shadow="0">
      <root>
        <mxCell id="0" />
        <mxCell id="1" parent="0" />
        <mxCell id="jy8L1whVZySuqoUxEnnZ-46" value="" style="edgeStyle=orthogonalEdgeStyle;html=1;exitX=1;exitY=0.5;labelBackgroundColor=none;startFill=0;startSize=8;endFill=1;endSize=8;fontFamily=Verdana;fontSize=12;endArrow=none;startArrow=none;" edge="1" parent="1" source="jy8L1whVZySuqoUxEnnZ-40" target="jy8L1whVZySuqoUxEnnZ-43">
          <mxGeometry relative="1" as="geometry">
            <Array as="points" />
            <mxPoint x="290" y="345" as="sourcePoint" />
            <mxPoint x="810" y="345" as="targetPoint" />
          </mxGeometry>
        </mxCell>
        <mxCell id="2debaab0fafb2da2-10" value="Object" style="html=1;rounded=0;shadow=0;comic=0;labelBackgroundColor=none;strokeWidth=2;fontFamily=Verdana;fontSize=12;align=center;shape=mxgraph.ios7ui.horLines;" parent="1" vertex="1">
          <mxGeometry x="172.5" y="440" width="135" height="50" as="geometry" />
        </mxCell>
        <mxCell id="21ea969265ad0168-6" value="&lt;font style=&quot;font-size: 17px&quot;&gt;binary&lt;/font&gt;" style="swimlane;html=1;fontStyle=0;childLayout=stackLayout;horizontal=1;startSize=26;fillColor=#e0e0e0;horizontalStack=0;resizeParent=1;resizeLast=0;collapsible=1;marginBottom=0;swimlaneFillColor=#ffffff;align=center;rounded=1;shadow=0;comic=0;labelBackgroundColor=none;strokeWidth=1;fontFamily=Verdana;fontSize=12" parent="1" vertex="1">
          <mxGeometry x="160" y="74" width="180" height="136" as="geometry" />
        </mxCell>
        <mxCell id="21ea969265ad0168-7" value="&lt;font style=&quot;font-size: 15px&quot;&gt;Retorna un string con el binario de 8 bits del valor ascii del numero, no es el binario exacto.&lt;/font&gt;" style="text;html=1;strokeColor=none;fillColor=none;spacingLeft=4;spacingRight=4;whiteSpace=wrap;overflow=hidden;rotatable=0;points=[[0,0.5],[1,0.5]];portConstraint=eastwest;" parent="21ea969265ad0168-6" vertex="1">
          <mxGeometry y="26" width="180" height="84" as="geometry" />
        </mxCell>
        <mxCell id="21ea969265ad0168-10" value="&lt;font size=&quot;3&quot;&gt;intToBinary&lt;/font&gt;" style="swimlane;html=1;fontStyle=0;childLayout=stackLayout;horizontal=1;startSize=26;fillColor=#e0e0e0;horizontalStack=0;resizeParent=1;resizeLast=0;collapsible=1;marginBottom=0;swimlaneFillColor=#ffffff;align=center;rounded=1;shadow=0;comic=0;labelBackgroundColor=none;strokeWidth=1;fontFamily=Verdana;fontSize=12" parent="1" vertex="1">
          <mxGeometry x="560" y="74" width="160" height="130" as="geometry" />
        </mxCell>
        <mxCell id="21ea969265ad0168-11" value="&lt;font style=&quot;font-size: 15px&quot;&gt;Retorna un string con el binario de 4 bits del digito del valor ascii&lt;/font&gt;" style="text;html=1;strokeColor=none;fillColor=none;spacingLeft=4;spacingRight=4;whiteSpace=wrap;overflow=hidden;rotatable=0;points=[[0,0.5],[1,0.5]];portConstraint=eastwest;" parent="21ea969265ad0168-10" vertex="1">
          <mxGeometry y="26" width="160" height="84" as="geometry" />
        </mxCell>
        <mxCell id="21ea969265ad0168-18" value="Function" style="swimlane;html=1;fontStyle=0;childLayout=stackLayout;horizontal=1;startSize=26;fillColor=#e0e0e0;horizontalStack=0;resizeParent=1;resizeLast=0;collapsible=1;marginBottom=0;swimlaneFillColor=#ffffff;align=center;rounded=1;shadow=0;comic=0;labelBackgroundColor=none;strokeWidth=1;fontFamily=Verdana;fontSize=12" parent="1" vertex="1">
          <mxGeometry x="160" y="570" width="160" height="140" as="geometry" />
        </mxCell>
        <mxCell id="21ea969265ad0168-19" value="Row 1" style="text;html=1;strokeColor=none;fillColor=none;spacingLeft=4;spacingRight=4;whiteSpace=wrap;overflow=hidden;rotatable=0;points=[[0,0.5],[1,0.5]];portConstraint=eastwest;" parent="21ea969265ad0168-18" vertex="1">
          <mxGeometry y="26" width="160" height="26" as="geometry" />
        </mxCell>
        <mxCell id="21ea969265ad0168-20" value="Row 2" style="text;html=1;strokeColor=none;fillColor=none;spacingLeft=4;spacingRight=4;whiteSpace=wrap;overflow=hidden;rotatable=0;points=[[0,0.5],[1,0.5]];portConstraint=eastwest;" parent="21ea969265ad0168-18" vertex="1">
          <mxGeometry y="52" width="160" height="26" as="geometry" />
        </mxCell>
        <mxCell id="21ea969265ad0168-51" value="Row 3" style="text;html=1;strokeColor=none;fillColor=none;spacingLeft=4;spacingRight=4;whiteSpace=wrap;overflow=hidden;rotatable=0;points=[[0,0.5],[1,0.5]];portConstraint=eastwest;" parent="21ea969265ad0168-18" vertex="1">
          <mxGeometry y="78" width="160" height="26" as="geometry" />
        </mxCell>
        <mxCell id="21ea969265ad0168-21" value="Row 4" style="text;html=1;strokeColor=none;fillColor=none;spacingLeft=4;spacingRight=4;whiteSpace=wrap;overflow=hidden;rotatable=0;points=[[0,0.5],[1,0.5]];portConstraint=eastwest;" parent="21ea969265ad0168-18" vertex="1">
          <mxGeometry y="104" width="160" height="26" as="geometry" />
        </mxCell>
        <mxCell id="21ea969265ad0168-26" value="Function" style="swimlane;html=1;fontStyle=0;childLayout=stackLayout;horizontal=1;startSize=26;fillColor=#e0e0e0;horizontalStack=0;resizeParent=1;resizeLast=0;collapsible=1;marginBottom=0;swimlaneFillColor=#ffffff;align=center;rounded=1;shadow=0;comic=0;labelBackgroundColor=none;strokeWidth=1;fontFamily=Verdana;fontSize=12" parent="1" vertex="1">
          <mxGeometry x="560" y="570" width="160" height="110" as="geometry" />
        </mxCell>
        <mxCell id="21ea969265ad0168-27" value="Row 1" style="text;html=1;strokeColor=none;fillColor=none;spacingLeft=4;spacingRight=4;whiteSpace=wrap;overflow=hidden;rotatable=0;points=[[0,0.5],[1,0.5]];portConstraint=eastwest;" parent="21ea969265ad0168-26" vertex="1">
          <mxGeometry y="26" width="160" height="26" as="geometry" />
        </mxCell>
        <mxCell id="21ea969265ad0168-28" value="Row 2" style="text;html=1;strokeColor=none;fillColor=none;spacingLeft=4;spacingRight=4;whiteSpace=wrap;overflow=hidden;rotatable=0;points=[[0,0.5],[1,0.5]];portConstraint=eastwest;" parent="21ea969265ad0168-26" vertex="1">
          <mxGeometry y="52" width="160" height="26" as="geometry" />
        </mxCell>
        <mxCell id="21ea969265ad0168-29" value="Row 3" style="text;html=1;strokeColor=none;fillColor=none;spacingLeft=4;spacingRight=4;whiteSpace=wrap;overflow=hidden;rotatable=0;points=[[0,0.5],[1,0.5]];portConstraint=eastwest;" parent="21ea969265ad0168-26" vertex="1">
          <mxGeometry y="78" width="160" height="26" as="geometry" />
        </mxCell>
        <mxCell id="21ea969265ad0168-30" value="Object" style="html=1;rounded=0;shadow=0;comic=0;labelBackgroundColor=none;strokeWidth=2;fontFamily=Verdana;fontSize=12;align=center;shape=mxgraph.ios7ui.horLines;" parent="1" vertex="1">
          <mxGeometry x="380" y="440" width="135" height="50" as="geometry" />
        </mxCell>
        <mxCell id="21ea969265ad0168-31" style="edgeStyle=none;html=1;labelBackgroundColor=none;startFill=0;startSize=8;endFill=1;endSize=8;fontFamily=Verdana;fontSize=12;" parent="1" source="21ea969265ad0168-18" target="2debaab0fafb2da2-10" edge="1">
          <mxGeometry relative="1" as="geometry" />
        </mxCell>
        <mxCell id="21ea969265ad0168-32" style="edgeStyle=none;html=1;labelBackgroundColor=none;startFill=0;startSize=8;endFill=1;endSize=8;fontFamily=Verdana;fontSize=12;" parent="1" source="2debaab0fafb2da2-10" target="21ea969265ad0168-14" edge="1">
          <mxGeometry relative="1" as="geometry" />
        </mxCell>
        <mxCell id="21ea969265ad0168-33" style="edgeStyle=orthogonalEdgeStyle;html=1;labelBackgroundColor=none;startFill=0;startSize=8;endFill=1;endSize=8;fontFamily=Verdana;fontSize=12;exitX=1;exitY=0.25;entryX=1;entryY=0.5;" parent="1" source="21ea969265ad0168-18" edge="1">
          <mxGeometry relative="1" as="geometry">
            <Array as="points">
              <mxPoint x="350" y="605" />
              <mxPoint x="350" y="357" />
            </Array>
            <mxPoint x="290" y="371" as="targetPoint" />
          </mxGeometry>
        </mxCell>
        <mxCell id="21ea969265ad0168-34" value="" style="edgeStyle=orthogonalEdgeStyle;html=1;labelBackgroundColor=none;startFill=0;startSize=8;endFill=1;endSize=8;fontFamily=Verdana;fontSize=12;" parent="1" source="21ea969265ad0168-30" target="21ea969265ad0168-27" edge="1">
          <mxGeometry x="-0.1342" y="32" relative="1" as="geometry">
            <mxPoint as="offset" />
          </mxGeometry>
        </mxCell>
        <mxCell id="21ea969265ad0168-36" style="edgeStyle=orthogonalEdgeStyle;html=1;labelBackgroundColor=none;startFill=0;startSize=8;endFill=1;endSize=8;fontFamily=Verdana;fontSize=12;" parent="1" source="21ea969265ad0168-6" target="21ea969265ad0168-14" edge="1">
          <mxGeometry relative="1" as="geometry">
            <Array as="points">
              <mxPoint x="240" y="230" />
              <mxPoint x="240" y="230" />
            </Array>
          </mxGeometry>
        </mxCell>
        <mxCell id="21ea969265ad0168-37" style="edgeStyle=orthogonalEdgeStyle;html=1;labelBackgroundColor=none;startFill=0;startSize=8;endFill=1;endSize=8;fontFamily=Verdana;fontSize=12;" parent="1" source="21ea969265ad0168-26" edge="1">
          <mxGeometry relative="1" as="geometry">
            <mxPoint x="640" y="350" as="targetPoint" />
          </mxGeometry>
        </mxCell>
        <mxCell id="21ea969265ad0168-39" style="edgeStyle=orthogonalEdgeStyle;html=1;labelBackgroundColor=none;startFill=0;startSize=8;endFill=1;endSize=8;fontFamily=Verdana;fontSize=12;startArrow=none;" parent="1" source="jy8L1whVZySuqoUxEnnZ-30" edge="1">
          <mxGeometry relative="1" as="geometry">
            <Array as="points">
              <mxPoint x="340" y="170" />
              <mxPoint x="560" y="170" />
            </Array>
            <mxPoint x="340" y="140" as="sourcePoint" />
            <mxPoint x="560" y="170" as="targetPoint" />
          </mxGeometry>
        </mxCell>
        <mxCell id="21ea969265ad0168-40" style="edgeStyle=orthogonalEdgeStyle;html=1;exitX=0;exitY=0.5;labelBackgroundColor=none;startFill=0;startSize=8;endFill=1;endSize=8;fontFamily=Verdana;fontSize=12;startArrow=none;" parent="1" source="jy8L1whVZySuqoUxEnnZ-23" edge="1">
          <mxGeometry relative="1" as="geometry">
            <mxPoint x="340" y="112" as="targetPoint" />
            <Array as="points">
              <mxPoint x="340" y="113" />
              <mxPoint x="340" y="113" />
            </Array>
          </mxGeometry>
        </mxCell>
        <mxCell id="21ea969265ad0168-42" style="edgeStyle=orthogonalEdgeStyle;html=1;exitX=1;exitY=0.5;labelBackgroundColor=none;startFill=0;startSize=8;endFill=1;endSize=8;fontFamily=Verdana;fontSize=12;startArrow=none;" parent="1" source="jy8L1whVZySuqoUxEnnZ-44" edge="1">
          <mxGeometry relative="1" as="geometry">
            <Array as="points" />
            <mxPoint x="290" y="345" as="sourcePoint" />
            <mxPoint x="1080" y="345" as="targetPoint" />
          </mxGeometry>
        </mxCell>
        <mxCell id="21ea969265ad0168-44" style="edgeStyle=orthogonalEdgeStyle;html=1;exitX=1;exitY=0.5;labelBackgroundColor=none;startFill=0;startSize=8;endFill=1;endSize=8;fontFamily=Verdana;fontSize=12;" parent="1" source="21ea969265ad0168-27" edge="1">
          <mxGeometry relative="1" as="geometry">
            <mxPoint x="880" y="609" as="targetPoint" />
          </mxGeometry>
        </mxCell>
        <mxCell id="21ea969265ad0168-45" style="edgeStyle=orthogonalEdgeStyle;html=1;labelBackgroundColor=none;startFill=0;startSize=8;endFill=1;endSize=8;fontFamily=Verdana;fontSize=12;entryX=1;entryY=0.5;" parent="1" target="21ea969265ad0168-28" edge="1">
          <mxGeometry relative="1" as="geometry">
            <mxPoint x="890" y="619" as="targetPoint" />
            <mxPoint x="880" y="635" as="sourcePoint" />
            <Array as="points">
              <mxPoint x="880" y="635" />
            </Array>
          </mxGeometry>
        </mxCell>
        <mxCell id="21ea969265ad0168-46" style="edgeStyle=orthogonalEdgeStyle;html=1;labelBackgroundColor=none;startFill=0;startSize=8;endFill=1;endSize=8;fontFamily=Verdana;fontSize=12;entryX=1;entryY=0.5;" parent="1" target="21ea969265ad0168-29" edge="1">
          <mxGeometry relative="1" as="geometry">
            <mxPoint x="730.1904761904761" y="645.0952380952381" as="targetPoint" />
            <mxPoint x="880" y="661" as="sourcePoint" />
            <Array as="points">
              <mxPoint x="800" y="661" />
              <mxPoint x="800" y="661" />
            </Array>
          </mxGeometry>
        </mxCell>
        <mxCell id="jy8L1whVZySuqoUxEnnZ-14" value="Placa de Arduino 1, transmisión de datos" style="swimlane;fontSize=17;" vertex="1" parent="1">
          <mxGeometry x="60" y="20" width="890" height="710" as="geometry" />
        </mxCell>
        <mxCell id="jy8L1whVZySuqoUxEnnZ-55" style="edgeStyle=orthogonalEdgeStyle;html=1;exitX=1;exitY=0.5;labelBackgroundColor=none;startFill=0;startSize=8;endFill=1;endSize=8;fontFamily=Verdana;fontSize=12;startArrow=none;" edge="1" parent="jy8L1whVZySuqoUxEnnZ-14" source="jy8L1whVZySuqoUxEnnZ-37">
          <mxGeometry relative="1" as="geometry">
            <Array as="points" />
            <mxPoint x="250" y="324.17" as="sourcePoint" />
            <mxPoint x="470.0000000000002" y="324.17" as="targetPoint" />
          </mxGeometry>
        </mxCell>
        <mxCell id="jy8L1whVZySuqoUxEnnZ-42" value="0" style="html=1;fontSize=17;" vertex="1" parent="jy8L1whVZySuqoUxEnnZ-14">
          <mxGeometry x="630" y="310" width="50" height="30" as="geometry" />
        </mxCell>
        <mxCell id="jy8L1whVZySuqoUxEnnZ-25" value="01001001" style="html=1;fontSize=15;" vertex="1" parent="jy8L1whVZySuqoUxEnnZ-14">
          <mxGeometry x="130" y="200" width="87.5" height="30" as="geometry" />
        </mxCell>
        <mxCell id="21ea969265ad0168-14" value="&lt;font style=&quot;font-size: 17px&quot;&gt;sendSerial&lt;/font&gt;" style="swimlane;html=1;fontStyle=0;childLayout=stackLayout;horizontal=1;startSize=26;fillColor=#e0e0e0;horizontalStack=0;resizeParent=1;resizeLast=0;collapsible=1;marginBottom=0;swimlaneFillColor=#ffffff;align=center;rounded=1;shadow=0;comic=0;labelBackgroundColor=none;strokeWidth=1;fontFamily=Verdana;fontSize=12" parent="jy8L1whVZySuqoUxEnnZ-14" vertex="1">
          <mxGeometry x="100" y="260" width="160" height="110" as="geometry" />
        </mxCell>
        <mxCell id="21ea969265ad0168-15" value="&lt;font style=&quot;font-size: 17px&quot;&gt;Envio de serial al integrado&lt;/font&gt;" style="text;html=1;strokeColor=none;fillColor=none;spacingLeft=4;spacingRight=4;whiteSpace=wrap;overflow=hidden;rotatable=0;points=[[0,0.5],[1,0.5]];portConstraint=eastwest;" parent="21ea969265ad0168-14" vertex="1">
          <mxGeometry y="26" width="160" height="54" as="geometry" />
        </mxCell>
        <mxCell id="jy8L1whVZySuqoUxEnnZ-27" style="edgeStyle=orthogonalEdgeStyle;html=1;labelBackgroundColor=none;startFill=0;startSize=8;endFill=1;endSize=8;fontFamily=Verdana;fontSize=12;entryX=0;entryY=0.5;entryDx=0;entryDy=0;" edge="1" parent="jy8L1whVZySuqoUxEnnZ-14" target="21ea969265ad0168-7">
          <mxGeometry relative="1" as="geometry">
            <mxPoint x="10" y="120" as="sourcePoint" />
            <mxPoint x="70" y="120" as="targetPoint" />
          </mxGeometry>
        </mxCell>
        <mxCell id="jy8L1whVZySuqoUxEnnZ-28" value="49" style="html=1;fontSize=15;" vertex="1" parent="jy8L1whVZySuqoUxEnnZ-14">
          <mxGeometry x="10" y="100" width="40" height="40" as="geometry" />
        </mxCell>
        <mxCell id="jy8L1whVZySuqoUxEnnZ-23" value="0100" style="html=1;fontSize=14;" vertex="1" parent="jy8L1whVZySuqoUxEnnZ-14">
          <mxGeometry x="300" y="74" width="80" height="36" as="geometry" />
        </mxCell>
        <mxCell id="jy8L1whVZySuqoUxEnnZ-41" value="0" style="html=1;fontSize=17;" vertex="1" parent="jy8L1whVZySuqoUxEnnZ-14">
          <mxGeometry x="570" y="310" width="50" height="30" as="geometry" />
        </mxCell>
        <mxCell id="jy8L1whVZySuqoUxEnnZ-38" value="0" style="html=1;fontSize=17;" vertex="1" parent="jy8L1whVZySuqoUxEnnZ-14">
          <mxGeometry x="370" y="310" width="50" height="30" as="geometry" />
        </mxCell>
        <mxCell id="jy8L1whVZySuqoUxEnnZ-44" value="0" style="html=1;fontSize=17;" vertex="1" parent="jy8L1whVZySuqoUxEnnZ-14">
          <mxGeometry x="760" y="310" width="50" height="30" as="geometry" />
        </mxCell>
        <mxCell id="jy8L1whVZySuqoUxEnnZ-40" value="1" style="html=1;fontSize=17;" vertex="1" parent="jy8L1whVZySuqoUxEnnZ-14">
          <mxGeometry x="500" y="310" width="50" height="30" as="geometry" />
        </mxCell>
        <mxCell id="jy8L1whVZySuqoUxEnnZ-37" value="1" style="html=1;fontSize=17;" vertex="1" parent="jy8L1whVZySuqoUxEnnZ-14">
          <mxGeometry x="310" y="310" width="50" height="30" as="geometry" />
        </mxCell>
        <mxCell id="jy8L1whVZySuqoUxEnnZ-63" value="" style="edgeStyle=orthogonalEdgeStyle;html=1;labelBackgroundColor=none;startFill=0;startSize=8;endFill=1;endSize=8;fontFamily=Verdana;fontSize=12;startArrow=none;endArrow=none;" edge="1" parent="jy8L1whVZySuqoUxEnnZ-14" target="jy8L1whVZySuqoUxEnnZ-37">
          <mxGeometry relative="1" as="geometry">
            <Array as="points" />
            <mxPoint x="260" y="325" as="sourcePoint" />
            <mxPoint x="530.0000000000002" y="344.1700000000001" as="targetPoint" />
          </mxGeometry>
        </mxCell>
        <mxCell id="jy8L1whVZySuqoUxEnnZ-65" value="" style="edgeStyle=orthogonalEdgeStyle;rounded=0;orthogonalLoop=1;jettySize=auto;html=1;fontSize=15;" edge="1" parent="1" source="jy8L1whVZySuqoUxEnnZ-15" target="jy8L1whVZySuqoUxEnnZ-64">
          <mxGeometry relative="1" as="geometry" />
        </mxCell>
        <mxCell id="jy8L1whVZySuqoUxEnnZ-15" value="Circuito Integrado 74HC595" style="swimlane;fontSize=17;" vertex="1" parent="1">
          <mxGeometry x="1040" y="180" width="660" height="360" as="geometry" />
        </mxCell>
        <mxCell id="jy8L1whVZySuqoUxEnnZ-21" value="4" style="html=1;fontSize=14;" vertex="1" parent="1">
          <mxGeometry x="455" y="154" width="50" height="26" as="geometry" />
        </mxCell>
        <mxCell id="jy8L1whVZySuqoUxEnnZ-24" value="" style="edgeStyle=orthogonalEdgeStyle;html=1;exitX=0;exitY=0.202;entryX=1;entryY=0.5;labelBackgroundColor=none;startFill=0;startSize=8;endFill=1;endSize=8;fontFamily=Verdana;fontSize=12;endArrow=none;exitDx=0;exitDy=0;exitPerimeter=0;startArrow=none;" edge="1" parent="1" source="jy8L1whVZySuqoUxEnnZ-32" target="jy8L1whVZySuqoUxEnnZ-23">
          <mxGeometry relative="1" as="geometry">
            <mxPoint x="560" y="113" as="sourcePoint" />
            <mxPoint x="340" y="113" as="targetPoint" />
            <Array as="points">
              <mxPoint x="455" y="112" />
            </Array>
          </mxGeometry>
        </mxCell>
        <mxCell id="jy8L1whVZySuqoUxEnnZ-32" value="1001" style="html=1;fontSize=15;" vertex="1" parent="1">
          <mxGeometry x="455" y="97" width="75" height="33" as="geometry" />
        </mxCell>
        <mxCell id="jy8L1whVZySuqoUxEnnZ-34" value="" style="edgeStyle=orthogonalEdgeStyle;html=1;exitX=0;exitY=0.202;entryX=1;entryY=0.5;labelBackgroundColor=none;startFill=0;startSize=8;endFill=1;endSize=8;fontFamily=Verdana;fontSize=12;endArrow=none;exitDx=0;exitDy=0;exitPerimeter=0;" edge="1" parent="1" source="21ea969265ad0168-11" target="jy8L1whVZySuqoUxEnnZ-32">
          <mxGeometry relative="1" as="geometry">
            <mxPoint x="560" y="116.96799999999996" as="sourcePoint" />
            <mxPoint x="440" y="112" as="targetPoint" />
            <Array as="points">
              <mxPoint x="560" y="112" />
            </Array>
          </mxGeometry>
        </mxCell>
        <mxCell id="jy8L1whVZySuqoUxEnnZ-30" value="9" style="html=1;fontSize=15;" vertex="1" parent="1">
          <mxGeometry x="390" y="160" width="50" height="20" as="geometry" />
        </mxCell>
        <mxCell id="jy8L1whVZySuqoUxEnnZ-45" value="" style="edgeStyle=orthogonalEdgeStyle;html=1;exitX=1;exitY=0.5;labelBackgroundColor=none;startFill=0;startSize=8;endFill=1;endSize=8;fontFamily=Verdana;fontSize=12;endArrow=none;startArrow=none;" edge="1" parent="1" source="jy8L1whVZySuqoUxEnnZ-43" target="jy8L1whVZySuqoUxEnnZ-44">
          <mxGeometry relative="1" as="geometry">
            <Array as="points" />
            <mxPoint x="290" y="345" as="sourcePoint" />
            <mxPoint x="1080.0000000000002" y="345" as="targetPoint" />
          </mxGeometry>
        </mxCell>
        <mxCell id="jy8L1whVZySuqoUxEnnZ-43" value="1" style="html=1;fontSize=17;" vertex="1" parent="1">
          <mxGeometry x="750" y="330" width="50" height="30" as="geometry" />
        </mxCell>
        <mxCell id="jy8L1whVZySuqoUxEnnZ-48" value="" style="edgeStyle=orthogonalEdgeStyle;html=1;exitX=1;exitY=0.5;labelBackgroundColor=none;startFill=0;startSize=8;endFill=1;endSize=8;fontFamily=Verdana;fontSize=12;endArrow=none;startArrow=none;" edge="1" parent="1" source="jy8L1whVZySuqoUxEnnZ-39" target="jy8L1whVZySuqoUxEnnZ-40">
          <mxGeometry relative="1" as="geometry">
            <Array as="points" />
            <mxPoint x="290" y="345" as="sourcePoint" />
            <mxPoint x="740" y="345" as="targetPoint" />
          </mxGeometry>
        </mxCell>
        <mxCell id="jy8L1whVZySuqoUxEnnZ-39" value="0" style="html=1;fontSize=17;" vertex="1" parent="1">
          <mxGeometry x="490" y="330" width="50" height="30" as="geometry" />
        </mxCell>
        <mxCell id="jy8L1whVZySuqoUxEnnZ-64" value="Placa de Arduino 2, recepción de datos." style="swimlane;fontSize=17;" vertex="1" parent="1">
          <mxGeometry x="1780" y="30" width="960" height="700" as="geometry" />
        </mxCell>
      </root>
    </mxGraphModel>
  </diagram>
</mxfile>
